<?xml version="1.0" standalone="no"?>
<!DOCTYPE svg PUBLIC "-//W3C//DTD SVG 20010904//EN"
 "http://www.w3.org/TR/2001/REC-SVG-20010904/DTD/svg10.dtd">
<svg version="1.0" xmlns="http://www.w3.org/2000/svg"
 width="260.000000pt" height="260.000000pt" viewBox="0 0 260.000000 260.000000"
 preserveAspectRatio="xMidYMid meet">
<metadata>
Created by potrace 1.14, written by Peter Selinger 2001-2017
</metadata>
<g transform="translate(0.000000,260.000000) scale(0.100000,-0.100000)"
fill="#000000" stroke="none">
<path d="M455 2248 c-63 -35 -95 -89 -95 -162 1 -62 37 -122 90 -148 43 -21
122 -23 159 -4 34 18 91 81 91 101 0 9 5 24 12 34 19 30 -25 126 -75 162 -34
25 -49 29 -101 29 -34 0 -70 -6 -81 -12z"/>
<path d="M1525 1719 c-214 -44 -373 -171 -454 -364 -24 -59 -25 -67 -30 -370
-7 -345 -7 -345 -78 -404 -89 -73 -224 -37 -274 74 -17 37 -19 77 -19 543 l0
502 -155 0 -155 0 0 -523 c0 -452 2 -530 16 -573 30 -92 69 -158 129 -220 72
-73 161 -119 275 -140 72 -14 88 -14 158 0 179 37 315 151 379 319 13 34 18
100 23 337 8 327 14 364 73 442 73 95 233 136 346 88 62 -27 122 -91 147 -158
17 -42 19 -95 22 -530 l3 -482 155 0 154 0 0 498 c0 458 -2 502 -19 557 -28
90 -45 125 -93 190 -84 113 -199 182 -361 216 -110 23 -126 22 -242 -2z"/>
</g>
</svg>
